<?xml version="1.0" encoding="utf-8"?>
<!-- Generator: Adobe Illustrator 24.1.0, SVG Export Plug-In . SVG Version: 6.00 Build 0)  -->
<svg version="1.1"
	 id="svg4" focusable="false" xmlns:cc="http://creativecommons.org/ns#" xmlns:dc="http://purl.org/dc/elements/1.1/" xmlns:inkscape="http://www.inkscape.org/namespaces/inkscape" xmlns:rdf="http://www.w3.org/1999/02/22-rdf-syntax-ns#" xmlns:sodipodi="http://sodipodi.sourceforge.net/DTD/sodipodi-0.dtd" xmlns:svg="http://www.w3.org/2000/svg"
	 xmlns="http://www.w3.org/2000/svg" xmlns:xlink="http://www.w3.org/1999/xlink" x="0px" y="0px" viewBox="0 0 30 30"
	 style="enable-background:new 0 0 30 30;" xml:space="preserve">
<sodipodi:namedview  bordercolor="#666666" borderopacity="1" gridtolerance="10" guidetolerance="10" id="namedview6" inkscape:current-layer="svg4" inkscape:cx="147.43421" inkscape:cy="360.5921" inkscape:pageopacity="0" inkscape:pageshadow="2" inkscape:window-height="847" inkscape:window-maximized="1" inkscape:window-width="1440" inkscape:window-x="-8" inkscape:window-y="-8" inkscape:zoom="0.60742188" objecttolerance="10" pagecolor="#ffffff" showgrid="false">
	</sodipodi:namedview>
<path d="M15,7.3c-4.3,0-7.7,3.4-7.7,7.7s3.4,7.7,7.7,7.7s7.7-3.4,7.7-7.7S19.3,7.3,15,7.3z M15,20c-2.8,0-5-2.2-5-5s2.2-5,5-5
	s5,2.2,5,5S17.8,20,15,20L15,20z M24.8,7c0,1-0.8,1.8-1.8,1.8c-1,0-1.8-0.8-1.8-1.8S22,5.2,23,5.2C24,5.2,24.8,6,24.8,7z M29.9,8.8
	c-0.1-2.4-0.7-4.5-2.4-6.3c-1.8-1.8-3.9-2.3-6.3-2.4C18.7,0,11.3,0,8.8,0.1C6.4,0.2,4.3,0.8,2.5,2.5S0.2,6.4,0.1,8.8
	C0,11.3,0,18.7,0.1,21.2c0.1,2.4,0.7,4.5,2.4,6.3s3.9,2.3,6.3,2.4c2.5,0.1,9.9,0.1,12.4,0c2.4-0.1,4.5-0.7,6.3-2.4
	c1.8-1.8,2.3-3.9,2.4-6.3C30,18.7,30,11.3,29.9,8.8L29.9,8.8z M26.7,23.8c-0.5,1.3-1.5,2.3-2.9,2.9c-2,0.8-6.7,0.6-8.8,0.6
	s-6.9,0.2-8.8-0.6c-1.3-0.5-2.3-1.5-2.9-2.9c-0.8-2-0.6-6.7-0.6-8.8S2.5,8.1,3.3,6.2c0.5-1.3,1.5-2.3,2.9-2.9c2-0.8,6.7-0.6,8.8-0.6
	s6.9-0.2,8.8,0.6c1.3,0.5,2.3,1.5,2.9,2.9c0.8,2,0.6,6.7,0.6,8.8S27.5,21.9,26.7,23.8z"/>
</svg>
