<?xml version="1.0" encoding="utf-8"?>
<!-- Generator: Adobe Illustrator 24.1.0, SVG Export Plug-In . SVG Version: 6.00 Build 0)  -->
<svg version="1.1"
	 id="svg4" focusable="false" xmlns:cc="http://creativecommons.org/ns#" xmlns:dc="http://purl.org/dc/elements/1.1/" xmlns:inkscape="http://www.inkscape.org/namespaces/inkscape" xmlns:rdf="http://www.w3.org/1999/02/22-rdf-syntax-ns#" xmlns:sodipodi="http://sodipodi.sourceforge.net/DTD/sodipodi-0.dtd" xmlns:svg="http://www.w3.org/2000/svg"
	 xmlns="http://www.w3.org/2000/svg" xmlns:xlink="http://www.w3.org/1999/xlink" x="0px" y="0px" viewBox="0 0 30 30"
	 style="enable-background:new 0 0 30 30;" xml:space="preserve">
<style type="text/css">
	.st0{fill:#FFFFFF;}
</style>
<sodipodi:namedview  bordercolor="#666666" borderopacity="1" gridtolerance="10" guidetolerance="10" id="namedview6" inkscape:current-layer="svg4" inkscape:cx="256" inkscape:cy="256" inkscape:pageopacity="0" inkscape:pageshadow="2" inkscape:window-height="480" inkscape:window-maximized="0" inkscape:window-width="793" inkscape:window-x="0" inkscape:window-y="0" inkscape:zoom="1.2148438" objecttolerance="10" pagecolor="#ffffff" showgrid="false">
	</sodipodi:namedview>
<sodipodi:namedview  bordercolor="#666666" borderopacity="1" gridtolerance="10" guidetolerance="10" id="namedview6" inkscape:current-layer="svg4" inkscape:cx="256" inkscape:cy="256" inkscape:pageopacity="0" inkscape:pageshadow="2" inkscape:window-height="480" inkscape:window-maximized="0" inkscape:window-width="793" inkscape:window-x="0" inkscape:window-y="0" inkscape:zoom="1.2148438" objecttolerance="10" pagecolor="#ffffff" showgrid="false">
	</sodipodi:namedview>
<sodipodi:namedview  bordercolor="#666666" borderopacity="1" gridtolerance="10" guidetolerance="10" id="namedview6" inkscape:current-layer="svg4" inkscape:cx="256" inkscape:cy="256" inkscape:pageopacity="0" inkscape:pageshadow="2" inkscape:window-height="480" inkscape:window-maximized="0" inkscape:window-width="793" inkscape:window-x="0" inkscape:window-y="0" inkscape:zoom="1.2148438" objecttolerance="10" pagecolor="#ffffff" showgrid="false">
	</sodipodi:namedview>
<g>
	<path class="st0" d="M2.8,5.5h24.5c1.5,0,2.8-1.2,2.8-2.8v0C30,1.2,28.8,0,27.2,0H2.8C1.2,0,0,1.2,0,2.8v0C0,4.3,1.2,5.5,2.8,5.5z"
		/>
	<path class="st0" d="M27.2,24.5H2.8c-1.5,0-2.8,1.2-2.8,2.8v0C0,28.8,1.2,30,2.8,30h24.5c1.5,0,2.8-1.2,2.8-2.8v0
		C30,25.7,28.8,24.5,27.2,24.5z"/>
	<path class="st0" d="M27.2,12.2H2.8C1.2,12.2,0,13.5,0,15v0c0,1.5,1.2,2.8,2.8,2.8h24.5c1.5,0,2.8-1.2,2.8-2.8v0
		C30,13.5,28.8,12.2,27.2,12.2z"/>
</g>
</svg>
